<svg height="512pt" viewBox="-61 0 512 512" width="512pt" xmlns="http://www.w3.org/2000/svg"><path d="m390 287c0-90.980469-74.019531-165-165-165h-45v-62h-30v-30h30v-30h-150v30h30v30h-30v212h30v60h90v-60h30v-60h45c41.355469 0 75 33.644531 75 75s-33.644531 75-75 75c-11.988281 0-215.148438 0-225 0v30h90v30h-15c-41.355469 0-75 33.644531-75 75v15h270v-15c0-17.964844-6.355469-34.46875-16.925781-47.398438 77.652343-13.367187 136.925781-81.1875 136.925781-162.601562zm-300-257h30v30h-30zm30 272h-30v-30h30zm30-60h-90v-152h90zm-30 150h30v30h-30zm-87.429688 90c6.191407-17.460938 22.871094-30 42.429688-30h120c19.558594 0 36.238281 12.539062 42.429688 30zm192.429688-60c-63.355469 0-22.003906 0-45 0v-30h45c57.898438 0 105-47.101562 105-105s-47.101562-105-105-105h-45v-30h45c74.4375 0 135 60.5625 135 135s-60.5625 135-135 135zm0 0"/></svg>