<svg xmlns="http://www.w3.org/2000/svg" xmlns:xlink="http://www.w3.org/1999/xlink" viewBox="0 0 367 150">
  <defs>
    <style>
      .cls-1 {
        clip-path: url(#clip-Logo-Light);
      }

      .cls-10, .cls-2 {
        fill: none;
      }

      .cls-2 {
        stroke: #707070;
      }

      .cls-3 {
        fill: #036735;
      }

      .cls-4 {
        fill: #fead02;
      }

      .cls-5 {
        fill: #fead01;
      }

      .cls-6 {
        fill: #fead03;
      }

      .cls-7, .cls-8 {
        fill: #046836;
      }

      .cls-8 {
        font-size: 36px;
        font-family: Comfortaa-Bold, Comfortaa;
        font-weight: 700;
      }

      .cls-9 {
        stroke: none;
      }

      .cls-11 {
        fill: #fff;
      }
    </style>
    <clipPath id="clip-Logo-Light">
      <rect width="367" height="150"/>
    </clipPath>
  </defs>
  <g id="Logo-Light" class="cls-1">
    <rect class="cls-11" width="367" height="150"/>
    <g id="Group_300" data-name="Group 300" transform="translate(13 -48)">
      <g id="Rectangle_168" data-name="Rectangle 168" class="cls-2" transform="translate(-7 55)">
        <rect class="cls-9" width="351" height="131"/>
        <rect class="cls-10" x="0.5" y="0.5" width="350" height="130"/>
      </g>
      <g id="USDALogo" transform="translate(10.071 78.001)">
        <g id="Layer_1" data-name="Layer 1" transform="translate(0 -0.001)">
          <path id="Path_25" data-name="Path 25" class="cls-3" d="M11.79,232.241a7.259,7.259,0,0,1,1.717-2.109,1.327,1.327,0,0,1,1.146-.272A67.325,67.325,0,0,1,30.74,235.3a43.167,43.167,0,0,1,16.926,15.6c.773,1.208,1.466,2.469,2.21,3.7.179.294.177.463-.147.664-.784.485-1.553,1-2.3,1.535-.347.25-.494.206-.7-.164a78.94,78.94,0,0,0-5.055-7.909,37.549,37.549,0,0,0-16.315-12.553,58.129,58.129,0,0,0-10.442-3.551,15.189,15.189,0,0,0-3.125-.379Z" transform="translate(-10.27 -200.199)"/>
          <path id="Path_26" data-name="Path 26" class="cls-3" d="M397.773,257.693c-.959-.645-1.876-1.267-2.814-1.861-.3-.192-.2-.347-.077-.569,6.376-11.887,15.75-20.022,29.052-23.266,1.917-.468,3.847-.869,5.787-1.229a2.3,2.3,0,0,1,2.367,1.1,4.6,4.6,0,0,1,.786,1.426,43.159,43.159,0,0,0-20.95,7.371A36.236,36.236,0,0,0,397.773,257.693Z" transform="translate(-343.873 -200.984)"/>
          <path id="Path_27" data-name="Path 27" class="cls-3" d="M443.18,298.976c.2-.447.387-.917.6-1.375a30.769,30.769,0,0,1,17.047-15.942,50.445,50.445,0,0,1,12.573-3.094,2.224,2.224,0,0,1,2.836,1.8c.2.608-.012.721-.547.773a47.076,47.076,0,0,0-7.839,1.405,32.48,32.48,0,0,0-18.2,12.258q-1.334,1.779-2.556,3.637a1.055,1.055,0,0,1-1.031.556C445.119,298.95,444.179,298.976,443.18,298.976Z" transform="translate(-386.05 -242.616)"/>
          <path id="Path_28" data-name="Path 28" class="cls-4" d="M287.766,337.154c0-1.41.014-2.714-.009-4.016-.008-.415.1-.562.538-.536,1.114.066,2.23.11,3.352.112.428,0,.554.16.57.552.048,1.219.116,2.436.187,3.861.815-.871,1.537-1.61,2.219-2.382a12.829,12.829,0,0,0,1.629-2.387c.168-.307.293-.352.558-.088a7.355,7.355,0,0,0,2.432,1.748c.458.187.023.4-.066.516a44.424,44.424,0,0,0-3.738,6c-.4.783-.764,1.582-1.12,2.385a.581.581,0,0,1-.563.418c-.342,0-.683.059-1.025.08a4.233,4.233,0,0,0-1.855.441c-.4.223-.9.4-1.274.058a2.679,2.679,0,0,0-2.184-.49,1.32,1.32,0,0,1-1.451-.9,35.035,35.035,0,0,0-5-7.385c-.312-.361-.455-.549.162-.741a5.274,5.274,0,0,0,2.332-1.662c.353-.4.467-.289.687.1A15.389,15.389,0,0,0,287.766,337.154Z" transform="translate(-244.511 -289.286)"/>
          <path id="Path_29" data-name="Path 29" class="cls-3" d="M3.25,280.007c.179-.285.312-.5.45-.715a2.92,2.92,0,0,1,3.474-1.507A63.972,63.972,0,0,1,20.257,281.7,30.344,30.344,0,0,1,36.219,297.63c.077.177.15.354.22.535a.718.718,0,0,1,.015.159l-3.523-.266c-.316-.024-.387-.311-.526-.516a57.338,57.338,0,0,0-4.7-6.283,32.341,32.341,0,0,0-17.761-10.2,60.049,60.049,0,0,0-6.694-1.052Z" transform="translate(-2.831 -241.883)"/>
          <path id="Path_30" data-name="Path 30" class="cls-5" d="M334.262,507.388c0-3.972.009-7.943-.012-11.915,0-.5.113-.661.63-.638q1.479.066,2.965,0c.531-.023.677.129.676.665-.021,5.6-.013,11.207-.013,16.81,0,2.384-.01,4.77.009,7.149,0,.443-.115.6-.571.583-1.031-.032-2.063-.039-3.094,0-.492.019-.6-.137-.6-.611C334.269,515.418,334.262,511.4,334.262,507.388Z" transform="translate(-291.162 -431.043)"/>
          <path id="Path_31" data-name="Path 31" class="cls-3" d="M26.49,341.806c-1.04.053-1.963.077-2.882.156-.376.032-.536-.2-.737-.414A38.637,38.637,0,0,0,11.366,333,25.052,25.052,0,0,0,0,330.4a3.77,3.77,0,0,1,3.771-2.578c7.407,1.134,13.979,4,19.285,9.429a22.03,22.03,0,0,1,3.055,3.891C26.229,341.331,26.336,341.534,26.49,341.806Z" transform="translate(0 -285.538)"/>
          <path id="Path_32" data-name="Path 32" class="cls-3" d="M517.859,332.059a24.491,24.491,0,0,0-6.6.811,33,33,0,0,0-12.032,6.323,35.7,35.7,0,0,0-4.473,4.164.732.732,0,0,1-.666.272c-.773-.052-1.547-.1-2.32-.108-.465,0-.516-.129-.286-.507a23.684,23.684,0,0,1,3.111-4.01,32.121,32.121,0,0,1,16.092-8.895c1.168-.278,2.35-.481,3.535-.673a2.192,2.192,0,0,1,1.747.454A8.258,8.258,0,0,1,517.859,332.059Z" transform="translate(-428.009 -286.94)"/>
          <path id="Path_33" data-name="Path 33" class="cls-3" d="M387.078,505.5c.013-2.677.222-4.966.41-7.256.026-.313.084-.438.418-.258.882.489,1.769.968,2.668,1.418.343.173.208.434.2.665a76.435,76.435,0,0,0,.028,8.121,46.327,46.327,0,0,0,1.943,10.674c.143.463.135.706-.424.847a24.233,24.233,0,0,0-2.5.829c-.413.153-.563.093-.7-.361A46.269,46.269,0,0,1,387.078,505.5Z" transform="translate(-337.164 -433.719)"/>
          <path id="Path_34" data-name="Path 34" class="cls-3" d="M275.815,499.46c.115,1.409.244,2.748.33,4.092a53.317,53.317,0,0,1-.363,11.378,52.48,52.48,0,0,1-1.586,7.019c-.084.287-.166.416-.516.284-.923-.344-1.865-.645-2.805-.936-.318-.1-.434-.211-.317-.588a51.656,51.656,0,0,0,2.012-18.651,1.063,1.063,0,0,1,.715-1.27C274.126,500.44,274.911,499.943,275.815,499.46Z" transform="translate(-235.641 -435.074)"/>
          <path id="Path_35" data-name="Path 35" class="cls-3" d="M157.7,484.251c.578,0,1.339-.224,1.682.059.374.311.019,1.082,0,1.651a36.062,36.062,0,0,1-4.437,16.552c-.215.387-.366.537-.808.287a20.631,20.631,0,0,0-2.082-1.006c-.422-.18-.464-.343-.224-.742a26.342,26.342,0,0,0,3.481-9.271,47.985,47.985,0,0,0,.536-6.992c.01-.49.148-.645.621-.593.4.04.816.008,1.223.008Z" transform="translate(-132.133 -421.753)"/>
          <path id="Path_36" data-name="Path 36" class="cls-3" d="M489.919,483.272c.009-.545-.316-1.3.055-1.676.281-.285,1.054-.112,1.607-.094.614.018,1.428-.281,1.783.129.306.352.115,1.145.129,1.743a28.646,28.646,0,0,0,4.061,15.083c.2.326.143.447-.193.6q-1.174.522-2.311,1.123c-.314.166-.424.08-.577-.2a34.762,34.762,0,0,1-4.36-14.343C490.06,484.859,489.986,484.089,489.919,483.272Z" transform="translate(-426.656 -419.354)"/>
          <path id="Path_37" data-name="Path 37" class="cls-6" d="M213.585,26.694V29.53a2.758,2.758,0,0,1-2.9,2.716,2.822,2.822,0,0,1-2.944-2.759q-.01-2.8,0-5.6a2.873,2.873,0,0,1,3.054-2.73,2.7,2.7,0,0,1,2.823,2.707V26.7Z" transform="translate(-180.96 -18.431)"/>
          <path id="Path_38" data-name="Path 38" class="cls-6" d="M455.434,24.458c0,.945.009,1.889,0,2.836a2.765,2.765,0,0,1-2.92,2.7,2.846,2.846,0,0,1-2.917-2.73c-.008-1.78,0-3.561,0-5.342a2.939,2.939,0,0,1,3.659-2.958,2.662,2.662,0,0,1,2.228,2.734v2.766Z" transform="translate(-391.636 -16.454)"/>
          <path id="Path_39" data-name="Path 39" class="cls-4" d="M271.218,69.54a2.931,2.931,0,0,1-4.654,2.141c-1.555-1.214-3.051-2.5-4.6-3.731a2.529,2.529,0,0,1-1.075-2.636,2.8,2.8,0,0,1,2.092-2.148,2.854,2.854,0,0,1,2.823.589q2.151,1.84,4.36,3.609A2.928,2.928,0,0,1,271.218,69.54Z" transform="translate(-227.209 -54.898)"/>
          <path id="Path_40" data-name="Path 40" class="cls-4" d="M368.859,129.59a2.979,2.979,0,0,1,2.649,1.6,2.378,2.378,0,0,1-.122,2.559,1.964,1.964,0,0,1-.459.531c-1.6,1.3-3.185,2.609-4.786,3.9a2.957,2.957,0,0,1-3.635-.041,2.646,2.646,0,0,1-.677-3.517,1.949,1.949,0,0,1,.5-.581q2.382-1.968,4.754-3.945A2.775,2.775,0,0,1,368.859,129.59Z" transform="translate(-314.846 -112.884)"/>
          <path id="Path_41" data-name="Path 41" class="cls-4" d="M262.828,194.736a2.744,2.744,0,0,1,1.842.734c1.4,1.2,2.8,2.405,4.267,3.522a2.874,2.874,0,0,1,.844,3.291,2.983,2.983,0,0,1-3.285,1.58,2.836,2.836,0,0,1-1.261-.6c-1.45-1.207-2.884-2.44-4.393-3.571a2.806,2.806,0,0,1-1.071-3A3.189,3.189,0,0,1,262.828,194.736Z" transform="translate(-226.182 -169.632)"/>
          <path id="Path_42" data-name="Path 42" class="cls-4" d="M167.174,161.607a2.739,2.739,0,0,1-1.617,2.4,2.687,2.687,0,0,1-2.929-.191c-1.722-1.312-3.39-2.7-5.037-4.1a2.28,2.28,0,0,1-.727-2.4,2.845,2.845,0,0,1,2.087-2.083,2.885,2.885,0,0,1,2.823.594q2.15,1.841,4.36,3.609A2.921,2.921,0,0,1,167.174,161.607Z" transform="translate(-136.567 -135.096)"/>
          <path id="Path_43" data-name="Path 43" class="cls-4" d="M366.586,269.721a3.035,3.035,0,0,1-2.891-1.865,2.966,2.966,0,0,1,.931-3.056c1.566-1.2,3.046-2.507,4.571-3.759a3.091,3.091,0,0,1,3.746.249,2.536,2.536,0,0,1,.552,3.411,2.489,2.489,0,0,1-.566.607c-1.547,1.261-3.094,2.518-4.629,3.791A2.935,2.935,0,0,1,366.586,269.721Z" transform="translate(-316.698 -226.935)"/>
          <path id="Path_44" data-name="Path 44" class="cls-4" d="M470.2,95.943a2.9,2.9,0,0,1-2.734-1.878,2.707,2.707,0,0,1,.92-2.988c1.517-1.261,3.032-2.525,4.557-3.777a3.038,3.038,0,0,1,3.79.245,2.506,2.506,0,0,1,.516,3.414,2.321,2.321,0,0,1-.516.561c-1.529,1.245-3.064,2.485-4.578,3.75A2.911,2.911,0,0,1,470.2,95.943Z" transform="translate(-407.082 -75.564)"/>
          <path id="Path_45" data-name="Path 45" class="cls-4" d="M471.032,161.339a2.984,2.984,0,0,1-2.875-1.872,2.741,2.741,0,0,1,.933-3.042c1.522-1.256,3.015-2.547,4.567-3.764a2.737,2.737,0,0,1,3.094-.179,2.618,2.618,0,0,1,1.61,2.565,2.449,2.449,0,0,1-.931,1.834c-1.547,1.258-3.1,2.509-4.63,3.789A3.094,3.094,0,0,1,471.032,161.339Z" transform="translate(-407.675 -132.483)"/>
          <path id="Path_46" data-name="Path 46" class="cls-4" d="M160.363,89.636a2.862,2.862,0,0,1,1.943.708c1.431,1.229,2.9,2.414,4.352,3.62a2.65,2.65,0,0,1,.478,3.724,2.944,2.944,0,0,1-4.028.63c-1.662-1.323-3.317-2.654-4.928-4.035a2.264,2.264,0,0,1-.748-2.559,2.95,2.95,0,0,1,2.418-2.052A4.509,4.509,0,0,1,160.363,89.636Z" transform="translate(-137.021 -78.08)"/>
          <path id="Path_47" data-name="Path 47" class="cls-4" d="M367.749,71.612a2.978,2.978,0,0,1-2.87-1.868,2.7,2.7,0,0,1,.931-3.04c1.517-1.262,3.032-2.525,4.557-3.776a3.048,3.048,0,0,1,3.738.25,2.506,2.506,0,0,1,.561,3.406,2.216,2.216,0,0,1-.516.566c-1.56,1.272-3.126,2.546-4.676,3.835A3.076,3.076,0,0,1,367.749,71.612Z" transform="translate(-317.706 -54.356)"/>
          <path id="Path_48" data-name="Path 48" class="cls-4" d="M164.712,233.031a2.853,2.853,0,0,1-1.8-.688c-1.443-1.217-2.915-2.4-4.383-3.589a2.569,2.569,0,0,1-1.031-2.877,3.114,3.114,0,0,1,2.728-2.025,3,3,0,0,1,2.191.741c1.394,1.205,2.83,2.364,4.254,3.537a2.741,2.741,0,0,1,.944,3.038A2.977,2.977,0,0,1,164.712,233.031Z" transform="translate(-137.089 -194.988)"/>
          <path id="Path_49" data-name="Path 49" class="cls-4" d="M463.711,228.479a2.627,2.627,0,0,1-.932,2.025l-4.735,3.867a2.992,2.992,0,0,1-3.638-.03,2.651,2.651,0,0,1-.709-3.46,1.98,1.98,0,0,1,.516-.645c1.587-1.312,3.152-2.652,4.763-3.93a3.035,3.035,0,0,1,4.735,2.172Z" transform="translate(-394.904 -196.625)"/>
          <path id="Path_50" data-name="Path 50" class="cls-4" d="M374.46,196.5a2.62,2.62,0,0,1-.941,2c-1.579,1.289-3.149,2.578-4.731,3.867a2.978,2.978,0,0,1-3.687-.076,2.652,2.652,0,0,1-.626-3.481,1.958,1.958,0,0,1,.491-.585c1.587-1.312,3.151-2.653,4.762-3.932a3.034,3.034,0,0,1,4.732,2.21Z" transform="translate(-317.152 -168.742)"/>
          <path id="Path_51" data-name="Path 51" class="cls-4" d="M267.391,137.881a2.778,2.778,0,0,1-1.687-.661c-1.41-1.186-2.85-2.338-4.282-3.5-1.231-1-1.6-2.167-1.038-3.305a3.127,3.127,0,0,1,3.509-1.644,2.47,2.47,0,0,1,1.083.526c1.459,1.229,2.934,2.44,4.4,3.658a2.724,2.724,0,0,1,.973,3.084A2.958,2.958,0,0,1,267.391,137.881Z" transform="translate(-226.593 -112.099)"/>
          <path id="Path_52" data-name="Path 52" class="cls-4" d="M266.6,269.143a2.925,2.925,0,0,1-1.949-.681c-1.445-1.212-2.9-2.412-4.383-3.581a2.584,2.584,0,0,1-1.054-2.822,3.058,3.058,0,0,1,2.608-2.091,2.942,2.942,0,0,1,2.264.694c1.428,1.231,2.9,2.412,4.349,3.62a2.687,2.687,0,0,1,.9,2.993A2.879,2.879,0,0,1,266.6,269.143Z" transform="translate(-225.717 -226.445)"/>
          <path id="Path_53" data-name="Path 53" class="cls-5" d="M336.971,5.542V8.378a2.757,2.757,0,0,1-2.9,2.707,2.786,2.786,0,0,1-2.913-2.707V2.653A2.825,2.825,0,0,1,334.192,0a2.678,2.678,0,0,1,2.8,2.649v2.9Z" transform="translate(-288.47 0.001)"/>
          <path id="Path_54" data-name="Path 54" class="cls-3" d="M371.274,442.546a1.506,1.506,0,0,1-1.323-.487q-6.042-5.554-12.11-11.079c-.146-.129-.436-.232-.358-.464.04-.116.318-.166.5-.22a4.988,4.988,0,0,1,5.114,1.138c3.062,2.755,6.17,5.458,9.258,8.182a2.013,2.013,0,0,1,.437,2.264C372.509,442.621,371.847,442.5,371.274,442.546Z" transform="translate(-311.388 -374.593)"/>
          <path id="Path_55" data-name="Path 55" class="cls-3" d="M440.67,524.18c1.174.746,2.235,1.418,3.3,2.094.222.139.222.36.232.567a41.516,41.516,0,0,0,3.009,12.451c.178.477.108.675-.387.82-.718.213-1.418.482-2.119.754-.334.129-.5.108-.672-.268a34.882,34.882,0,0,1-3.149-13.112C440.841,526.437,440.75,525.389,440.67,524.18Z" transform="translate(-383.863 -456.608)"/>
          <path id="Path_56" data-name="Path 56" class="cls-3" d="M216.769,526.65c-.088,2.119-.3,4.125-.454,6.123a33.514,33.514,0,0,1-2.9,10.277c-.129.32-.236.428-.594.284-.753-.305-1.519-.585-2.3-.817-.436-.129-.432-.325-.3-.685.773-2.135,1.526-4.275,2.114-6.467a36.717,36.717,0,0,0,.909-5.969.986.986,0,0,1,.53-.857C214.756,527.946,215.717,527.317,216.769,526.65Z" transform="translate(-183.054 -458.759)"/>
          <path id="Path_57" data-name="Path 57" class="cls-3" d="M40.373,196.451a51.319,51.319,0,0,0-15.673-5.31,4.364,4.364,0,0,1,5.476-2.377c3.316.944,6.555,2.128,9.8,3.286a.489.489,0,0,1,.4.543C40.363,193.815,40.373,195.038,40.373,196.451Z" transform="translate(-21.516 -164.238)"/>
          <path id="Path_58" data-name="Path 58" class="cls-3" d="M563.694,186.761c-1.446.335-2.853.682-4.268.986a48.309,48.309,0,0,0-10.8,4.036c-.525.258-.644.168-.619-.4.035-1.007.023-2.016,0-3.026,0-.343.071-.534.428-.657,3.134-1.083,6.25-2.224,9.431-3.169a6.5,6.5,0,0,1,2.282-.277A4.276,4.276,0,0,1,563.694,186.761Z" transform="translate(-477.361 -160.497)"/>
          <path id="Path_59" data-name="Path 59" class="cls-7" d="M184.89,449.9a.937.937,0,0,1-.855.534,3.239,3.239,0,0,0-.7.091c-1.308.237-1.785.752-1.788,2.081,0,.53-.17.625-.654.621-3.325-.027-6.648-.023-9.973-.033a1.8,1.8,0,0,1-1.773-1.676,1.706,1.706,0,0,1,1.773-1.633l13.448.014Z" transform="translate(-147.345 -391.886)"/>
          <path id="Path_60" data-name="Path 60" class="cls-3" d="M233.721,463.274c-1.61-.094-1.64-.059-1.666,1.949-.206-.063-.4-.129-.6-.183a3.549,3.549,0,0,0-3.492.664,41.59,41.59,0,0,0-4.373,4.351,1.919,1.919,0,0,1-2.266-.031,1.628,1.628,0,0,1-.258-1.934,26.251,26.251,0,0,1,2.434-2.827,3.213,3.213,0,0,1,2.542-1.015c.538.028,1.012-.091,1.208-.637a1.578,1.578,0,0,1,2.106-1.049,1.424,1.424,0,0,0,1.662-.665c.625-.792.659-.767,1.345-.052C232.8,462.3,233.242,462.767,233.721,463.274Z" transform="translate(-192.386 -401.839)"/>
          <path id="Path_61" data-name="Path 61" class="cls-3" d="M431.47,447.337c2.153,0,4.526-.008,6.9,0,1.48.006,2.965.039,4.44.062a1.458,1.458,0,0,1,1.418,1.36,1.726,1.726,0,0,1-1.418,1.577c-2.788-.017-5.577-.055-8.365-.079a.645.645,0,0,1-.505-.227C433.085,449.1,432.227,448.163,431.47,447.337Z" transform="translate(-375.849 -389.667)"/>
          <path id="Path_62" data-name="Path 62" class="cls-7" d="M349.095,445.075h-2.413a3.461,3.461,0,0,1-1.2-.208,1.163,1.163,0,0,1-.888-1.426,12.9,12.9,0,0,1,.454-2.191c.073-.258.129-.438.4-.156Z" transform="translate(-300.161 -384.108)"/>
          <path id="Path_63" data-name="Path 63" class="cls-7" d="M308.271,437.579c1.748-.018,2.6,1.227,1.99,2.69a3.49,3.49,0,0,1-.412.719c-.522.708-.545.695-1.134.055-.71-.773-1.418-1.547-2.166-2.283-.284-.284-.241-.422.073-.61A3.4,3.4,0,0,1,308.271,437.579Z" transform="translate(-266.866 -381.17)"/>
        </g>
      </g>
      <text id="U.S._Dept_of_Agriculture" data-name="U.S. Dept of
Agriculture" class="cls-8" transform="translate(102 114)"><tspan x="0" y="0">U.S. Dept of</tspan><tspan x="0" y="42">Agriculture</tspan></text>
    </g>
  </g>
</svg>
