<svg xmlns="http://www.w3.org/2000/svg" viewBox="0 0 700.15 690.41"><defs><style>.cls-1{fill:#036735;}.cls-2{fill:#fead02;}.cls-3{fill:#fead01;}.cls-4{fill:#fead03;}.cls-5{fill:#046836;}</style></defs><title>blackAsset 1</title><g id="Layer_2" data-name="Layer 2"><g id="Layer_1-2" data-name="Layer 1"><path class="cls-1" d="M11.79,248.56c4-6.63,7.85-12.13,13.32-16.36A10.29,10.29,0,0,1,34,230.09c43.09,9.63,85.24,22,124.79,42.17,55.11,28.07,98.13,69.23,131.3,121.05,6,9.37,11.37,19.15,17.14,28.68,1.39,2.28,1.37,3.59-1.14,5.15-6.08,3.76-12.05,7.72-17.85,11.91-2.69,1.94-3.83,1.6-5.44-1.27a612.34,612.34,0,0,0-39.21-61.35c-32.75-44.8-75.72-76.2-126.56-97.38-26.38-11-52.89-21.69-81-27.55A117.85,117.85,0,0,0,11.79,248.56Z"/><path class="cls-1" d="M418.12,439.91c-7.44-5-14.55-9.83-21.83-14.44-2.35-1.49-1.52-2.69-.6-4.41,49.46-92.21,122.18-155.32,225.37-180.48,14.87-3.63,29.84-6.74,44.89-9.53,8.16-1.51,13.78,2.44,18.36,8.5a35.71,35.71,0,0,1,6.1,11.06C631,255.28,577,274.88,527.89,307.79,478.44,340.93,440.21,383.61,418.12,439.91Z"/><path class="cls-1" d="M443.18,437.2c1.52-3.47,3-7.11,4.67-10.67,27.53-58.92,72.22-99.48,132.24-123.67,31.38-12.65,64.09-19.73,97.53-24,12.42-1.57,18.11,2.18,22,13.94,1.54,4.72-.09,5.59-4.24,6a365.17,365.17,0,0,0-60.81,10.9q-87.21,23-141.22,95.09Q483,418.59,473.52,433c-2.11,3.18-4.29,4.44-8,4.31C458.22,437,450.93,437.2,443.18,437.2Z"/><path class="cls-2" d="M335.54,371.33c0-10.94.11-21.05-.07-31.15-.06-3.22.78-4.36,4.17-4.16,8.64.51,17.3.85,26,.87,3.32,0,4.3,1.24,4.42,4.28.37,9.46.9,18.9,1.45,29.95,6.32-6.76,11.92-12.49,17.21-18.48a99.52,99.52,0,0,0,12.64-18.52c1.3-2.38,2.27-2.73,4.33-.68C411.21,339,417.14,344,424.56,347c3.55,1.45.18,3.08-.51,4a344.61,344.61,0,0,0-29,46.53c-3.09,6.07-5.93,12.27-8.69,18.5-.92,2-2,3.2-4.37,3.24-2.65,0-5.3.46-7.95.62-5,.3-9.86.92-14.39,3.42-3.12,1.73-7,3.08-9.88.45-5.09-4.6-11.09-4.22-16.94-3.8s-8.7-1.82-11.26-7c-10.26-20.86-23.64-39.71-38.8-57.29-2.42-2.8-3.53-4.26,1.26-5.75,7.31-2.28,13.11-7.24,18.09-12.89,2.74-3.1,3.62-2.24,5.33.81C314.35,350.27,326.57,364.78,335.54,371.33Z"/><path class="cls-1" d="M3.25,295.74c1.39-2.21,2.42-3.89,3.49-5.55,6.35-9.94,13.81-14.51,26.95-11.69,34.7,7.43,69,15.72,101.49,30.38C192,334.52,233.93,375,259,432.45c.6,1.37,1.16,2.75,1.71,4.15a5.57,5.57,0,0,1,.12,1.23l-27.33-2.06c-2.45-.19-3-2.41-4.08-4-11.23-16.94-23-33.46-36.46-48.74-37-42-83.66-67-137.78-79.13A465.79,465.79,0,0,0,3.25,295.74Z"/><path class="cls-3" d="M334.34,592.23c0-30.81.07-61.62-.09-92.43,0-3.86.88-5.13,4.89-4.95,7.65.34,15.33.34,23,0,4.12-.18,5.25,1,5.24,5.16-.16,43.47-.1,86.94-.1,130.4,0,18.49-.08,37,.07,55.46,0,3.44-.89,4.62-4.43,4.52-8-.25-16-.3-24,0-3.82.15-4.68-1.06-4.67-4.74C334.4,654.52,334.34,623.37,334.34,592.23Z"/><path class="cls-1" d="M205.49,436.49c-8.07.41-15.23.6-22.36,1.21-2.92.25-4.16-1.54-5.72-3.21-25.78-27.43-55.19-50-89.24-66.3C60.33,354.88,31.06,347.45,0,348c3.19-11.75,17.61-21.78,29.25-20,57.46,8.8,108.44,31,149.6,73.14a170.89,170.89,0,0,1,23.7,30.18C203.47,432.8,204.3,434.38,205.49,436.49Z"/><path class="cls-1" d="M697,350a190,190,0,0,0-51.19,6.29c-34.78,9.35-65.36,26.74-93.34,49.05a277,277,0,0,0-34.7,32.3,5.68,5.68,0,0,1-5.17,2.11c-6-.4-12-.81-18-.84-3.61,0-4-1-2.22-3.93a183.72,183.72,0,0,1,24.13-31.11c34.51-35.83,76.86-57.49,124.83-69,9.06-2.16,18.23-3.73,27.42-5.22a17,17,0,0,1,13.55,3.52C688.13,337.59,692.52,343.14,697,350Z"/><path class="cls-1" d="M387.2,556.84c.1-20.77,1.72-38.52,3.18-56.29.2-2.43.65-3.4,3.24-2,6.84,3.79,13.72,7.51,20.7,11,2.66,1.34,1.61,3.37,1.53,5.16a592.76,592.76,0,0,0,.22,63,359.4,359.4,0,0,0,15.07,82.8c1.11,3.59,1.05,5.48-3.29,6.57a188.12,188.12,0,0,0-19.39,6.43c-3.2,1.19-4.37.72-5.44-2.8C391.48,632.6,386.1,593.71,387.2,556.84Z"/><path class="cls-1" d="M311.64,499.46c.89,10.93,1.89,21.32,2.56,31.74,1.91,29.5,1.57,58.94-2.82,88.26a407.11,407.11,0,0,1-12.3,54.45c-.65,2.23-1.29,3.23-4,2.2-7.16-2.67-14.47-5-21.76-7.26-2.47-.78-3.37-1.64-2.46-4.56,14.66-47.19,18.61-95.58,15.61-144.68-.3-4.84.56-7.8,5.55-9.85C298.54,507.06,304.63,503.21,311.64,499.46Z"/><path class="cls-1" d="M198.35,484.82c4.48,0,10.39-1.74,13.05.46,2.9,2.41.15,8.39,0,12.81-1.24,45.54-12.54,88.37-34.42,128.4-1.67,3-2.84,4.17-6.27,2.23a160,160,0,0,0-16.15-7.8c-3.27-1.4-3.6-2.66-1.74-5.76,13.38-22.31,22.7-46.16,27-71.92,3-18,3.81-36.09,4.16-54.24.08-3.8,1.15-5,4.82-4.6,3.14.31,6.33.06,9.49.06Z"/><path class="cls-1" d="M490.75,495.83c.07-4.23-2.45-10.08.43-13,2.18-2.21,8.18-.87,12.47-.73,4.76.14,11.08-2.18,13.83,1,2.37,2.73.89,8.88,1,13.52.69,41.65,9.14,81.21,31.5,117,1.59,2.53,1.11,3.47-1.5,4.63q-9.11,4.05-17.93,8.71c-2.44,1.29-3.29.62-4.48-1.58-18.74-34.82-31.26-71.51-33.82-111.26C491.84,508.14,491.27,502.17,490.75,495.83Z"/><path class="cls-4" d="M253.08,64.1c0,7.32,0,14.65,0,22-.09,12.07-9.68,21-22.46,21.07s-22.79-9.35-22.84-21.4q-.08-21.72,0-43.43c0-11.92,10.56-21.3,23.69-21.18,12.61.11,21.89,9,21.9,21v22Z"/><path class="cls-4" d="M494.9,62.09c0,7.33.07,14.65,0,22-.14,12-9.89,21-22.65,20.93-12.39,0-22.58-9.54-22.63-21.18-.06-13.81,0-27.62,0-41.44,0-15.66,12.9-26.1,28.38-22.95,10.69,2.19,17.3,10.3,17.28,21.21q0,10.73,0,21.46Z"/><path class="cls-2" d="M341.4,113.58c-.67,8.93-5.17,15.24-13,18.84s-16.1,3.23-23.1-2.23c-12.06-9.42-23.67-19.42-35.65-28.94-6.74-5.36-10.14-12-8.34-20.45,1.85-8.75,7.93-14.19,16.23-16.66,7.9-2.35,15.31-1.07,21.9,4.57q16.69,14.27,33.82,28C338.84,101.19,340.79,107,341.4,113.58Z"/><path class="cls-2" d="M419,129.59c9.09.15,16,4.55,20.55,12.45,3.9,6.72,2.89,13.4-.95,19.85a15.23,15.23,0,0,1-3.56,4.12c-12.4,10.07-24.71,20.24-37.13,30.28-7.93,6.41-20.3,6.19-28.2-.32-8.74-7.2-10.66-17.23-5.25-27.28a15.12,15.12,0,0,1,3.84-4.51q18.48-15.27,36.88-30.6C409.2,130.23,413.93,129.81,419,129.59Z"/><path class="cls-2" d="M284.27,194.74c4.72-.11,9.72,1.75,14.29,5.69,10.84,9.34,21.73,18.66,33.1,27.32,7,5.31,10.67,17.29,6.55,25.53a23.14,23.14,0,0,1-25.48,12.26,22,22,0,0,1-9.78-4.63c-11.25-9.36-22.37-18.93-34.08-27.7-7.37-5.53-11.05-15.66-8.31-23.24C263.74,201.16,273.24,194.66,284.27,194.74Z"/><path class="cls-2" d="M237.43,205.65c-.62,8.74-5,14.89-12.54,18.61-7.72,3.81-15.92,3.69-22.72-1.48-13.36-10.18-26.3-20.92-39.07-31.84-5.54-4.74-7.5-11.49-5.64-18.62,2.17-8.38,8-13.81,16.19-16.16,7.91-2.28,15.32-1,21.9,4.61q16.68,14.28,33.82,28C234.91,193.26,236.87,199.09,237.43,205.65Z"/><path class="cls-2" d="M387,331.9c-10.43.07-19.14-6-22.43-14.47-2.92-7.51.84-18.82,7.22-23.71,12.15-9.29,23.63-19.45,35.46-29.16,7.46-6.12,21.1-5.14,29.06,1.93,8.33,7.41,9.91,17.32,4.28,26.46a19.29,19.29,0,0,1-4.39,4.71c-12,9.78-24,19.53-35.91,29.41A22.77,22.77,0,0,1,387,331.9Z"/><path class="cls-2" d="M489.65,158.09a22.49,22.49,0,0,1-21.21-14.57c-2.87-8.1-.1-17.16,7.14-23.18,11.77-9.78,23.52-19.59,35.35-29.3,7.84-6.43,21-5.51,29.4,1.9s9.76,17.34,4,26.48a18,18,0,0,1-4,4.35c-11.86,9.66-23.77,19.28-35.51,29.09A22.58,22.58,0,0,1,489.65,158.09Z"/><path class="cls-2" d="M491.48,223.84c-10.35.08-19.09-5.88-22.3-14.52-3-8.16-.13-17.51,7.24-23.6,11.81-9.74,23.39-19.76,35.43-29.2,7.38-5.79,16-5.53,24-1.39,7.84,4,13,10.43,12.49,19.9a19,19,0,0,1-7.22,14.23c-12,9.76-24.05,19.46-35.92,29.39A24,24,0,0,1,491.48,223.84Z"/><path class="cls-2" d="M181.07,89.64a22.2,22.2,0,0,1,15.07,5.49c11.1,9.53,22.5,18.73,33.76,28.08,9.11,7.57,10.69,20,3.71,28.89-7.64,9.69-22.16,12.13-31.25,4.89-12.89-10.26-25.73-20.59-38.23-31.3-6-5.09-8.38-12.12-5.8-19.85,3-8.92,9.47-14.21,18.76-15.92A35,35,0,0,1,181.07,89.64Z"/><path class="cls-2" d="M388.2,133.86c-10.29.1-19.09-5.88-22.26-14.49-3.05-8.26-.27-17.36,7.22-23.58C384.93,86,396.68,76.2,408.51,66.5c7.56-6.2,21-5.22,29,1.94,8.5,7.62,10,17,4.35,26.42a17.19,17.19,0,0,1-4,4.39C425.76,109.12,413.61,119,401.59,129,397.36,132.49,392.45,133.44,388.2,133.86Z"/><path class="cls-2" d="M214.28,295.11a22.13,22.13,0,0,1-13.93-5.34c-11.19-9.44-22.61-18.6-34-27.84-7.77-6.33-10.68-14.35-8-22.32,2.86-8.63,12-15.39,21.16-15.71a23.29,23.29,0,0,1,17,5.75c10.81,9.35,21.95,18.34,33,27.44,7.37,6.06,10.29,15.35,7.32,23.57C233.64,289.31,225,295.16,214.28,295.11Z"/><path class="cls-2" d="M533.76,247.1c-.37,6.5-2.38,11.75-7.23,15.71q-18.37,15-36.73,30c-7.78,6.33-20.23,6.19-28.22-.23-8.53-6.85-10.56-16.88-5.5-26.84a15.36,15.36,0,0,1,4-5c12.31-10.18,24.45-20.57,36.95-30.49,7.2-5.72,15.57-5.67,23.55-1.8C528.36,232.19,533.39,238.37,533.76,247.1Z"/><path class="cls-2" d="M444.56,215.34c-.39,6.32-2.45,11.54-7.3,15.49-12.25,10-24.43,20-36.7,30-8,6.48-20.74,6.16-28.6-.59-8.41-7.22-10.17-17.13-4.86-27a15.19,15.19,0,0,1,3.81-4.54c12.31-10.18,24.44-20.58,36.94-30.5,7.2-5.71,15.57-5.6,23.55-1.75C439.19,200.25,444.15,206.45,444.56,215.34Z"/><path class="cls-2" d="M316.48,200a21.55,21.55,0,0,1-13.09-5.13c-10.94-9.2-22.11-18.14-33.22-27.15-9.55-7.75-12.42-16.81-8.05-25.64a24.26,24.26,0,0,1,27.22-12.75,19.17,19.17,0,0,1,8.4,4.08c11.32,9.53,22.76,18.93,34.15,28.38,7.79,6.45,10.68,15.59,7.55,23.92C336.16,194.45,327.72,200.11,316.48,200Z"/><path class="cls-2" d="M317.12,331.22A22.69,22.69,0,0,1,302,325.94c-11.21-9.4-22.52-18.71-34-27.78-7.29-5.76-10.39-12.93-8.18-21.89,2.06-8.33,11.29-15.55,20.23-16.22,6.48-.49,12.35.88,17.56,5.38,11.08,9.55,22.51,18.71,33.74,28.08,7.26,6.06,9.94,15.09,7,23.22A22.33,22.33,0,0,1,317.12,331.22Z"/><path class="cls-3" d="M376.24,43c0,7.32,0,14.64,0,22-.07,12-9.77,21-22.48,21s-22.57-9.23-22.6-21q0-22.2,0-44.41C331.14,9,341.59-.11,354.68,0c12.45.11,21.71,8.86,21.74,20.55q0,11.23,0,22.46Z"/><path class="cls-1" d="M464.55,527.13c-4.17.67-7.2-1-10.26-3.78q-46.87-43.08-93.94-85.94c-1.13-1-3.38-1.8-2.78-3.6.31-.9,2.47-1.29,3.85-1.71,14.87-4.49,27.91-1.74,39.67,8.83,23.75,21.37,47.86,42.34,71.82,63.47,4.6,4.06,5.91,10.9,3.39,17.56C474.13,527.71,469,526.77,464.55,527.13Z"/><path class="cls-1" d="M440.67,524.18c9.11,5.79,17.34,11,25.59,16.24,1.72,1.08,1.72,2.79,1.8,4.4,1.73,33.66,11.62,65.36,23.34,96.59,1.38,3.7.84,5.24-3,6.36-5.57,1.65-11,3.74-16.44,5.85-2.59,1-3.9.84-5.21-2.08-14.58-32.37-23.08-66.16-24.43-101.71C442,541.69,441.29,533.56,440.67,524.18Z"/><path class="cls-1" d="M261.54,526.65c-.68,16.44-2.34,32-3.52,47.5-2.12,28.13-11.87,54-22.51,79.72-1,2.48-1.83,3.32-4.61,2.2-5.84-2.37-11.78-4.54-17.82-6.34-3.38-1-3.35-2.52-2.34-5.31,6-16.56,11.84-33.16,16.4-50.17,4.06-15.15,5.53-30.75,7.05-46.3a7.65,7.65,0,0,1,4.11-6.65C245.92,536.7,253.38,531.82,261.54,526.65Z"/><path class="cls-1" d="M146.28,249.89C107.56,229,67.06,216.16,24.7,208.7c7.68-16.58,23.88-23.73,42.48-18.44,25.72,7.32,50.85,16.51,76,25.49,2.2.79,3.16,1.74,3.12,4.21C146.2,229.44,146.28,238.93,146.28,249.89Z"/><path class="cls-1" d="M669.71,203.74c-11.22,2.6-22.13,5.29-33.11,7.65-29.47,6.33-56.82,18.3-83.77,31.31-4.07,2-5,1.3-4.8-3.07.27-7.81.18-15.64,0-23.47,0-2.66.55-4.14,3.32-5.1,24.31-8.4,48.48-17.25,73.16-24.58a50.39,50.39,0,0,1,17.7-2.15C655.28,185.13,663.37,192.72,669.71,203.74Z"/><path class="cls-5" d="M291.25,450c-2,2.94-3.8,4.24-6.63,4.14a25.1,25.1,0,0,0-5.42.71c-10.15,1.84-13.85,5.83-13.87,16.14,0,4.11-1.32,4.85-5.07,4.82-25.79-.21-51.57-.18-77.36-.26-7.23,0-13.73-6.24-13.75-13,0-7,6.14-12.67,13.75-12.67l104.32.11Z"/><path class="cls-1" d="M320.65,476.57c-12.49-.73-12.72-.46-12.92,15.12-1.6-.49-3.12-1-4.65-1.42-9.9-2.89-18.85-1.69-27.09,5.15-12.34,10.25-23.27,21.84-33.92,33.75-3.36,3.76-12.77,3.65-17.58-.24-3.74-3-4.91-11.08-2-15A203.63,203.63,0,0,1,241.37,492c5.5-5.53,12-8.27,19.72-7.87,4.17.22,7.85-.71,9.37-4.94,2.92-8.05,9-10.05,16.34-8.14,6.07,1.6,9.42-.75,12.89-5.16,4.85-6.14,5.11-5.95,10.43-.4C313.54,469.05,316.93,472.64,320.65,476.57Z"/><path class="cls-1" d="M431.47,447.36c16.7,0,35.11-.06,53.52,0,11.48.05,23,.3,34.44.48,5.79.08,10.88,5,11,10.55.12,5.38-5.86,12.26-11,12.23-21.63-.13-43.26-.43-64.89-.61a5,5,0,0,1-3.92-1.76C444,461,437.34,453.77,431.47,447.36Z"/><path class="cls-5" d="M379.59,472.94c-4.79,0-11.75,0-18.72,0a26.84,26.84,0,0,1-9.27-1.61c-5.66-2.09-7.56-5.11-6.89-11.06a100,100,0,0,1,3.52-17c.57-2,1-3.4,3.07-1.21Z"/><path class="cls-5" d="M321.19,437.58c13.56-.14,20.16,9.52,15.44,20.87a27.08,27.08,0,0,1-3.2,5.58c-4.05,5.49-4.23,5.39-8.8.43-5.51-6-11-12-16.8-17.71-2.2-2.2-1.87-3.27.57-4.73C312.75,439.4,317.3,437.56,321.19,437.58Z"/></g></g></svg>