<svg height="511pt" viewBox="-65 1 511 511.99999" width="511pt" xmlns="http://www.w3.org/2000/svg"><path d="m225.136719 79.992188c5.519531 0 10-4.480469 10-10 0-5.523438-4.480469-10-10-10-5.523438 0-10.003907 4.476562-10.003907 10 0 5.519531 4.480469 10 10.003907 10zm0 0"/><path d="m90.5 345.996094c-27.570312 0-50 22.429687-50 50v10h-10c-16.542969 0-30 13.460937-30 30.003906v46c0 16.542969 13.457031 30 30 30h320.007812c16.542969 0 30-13.457031 30-30v-46c0-16.542969-13.457031-30.003906-30-30.003906h-10v-10c0-27.570313-22.429687-50-50-50h-50.003906v-64.671875c0-47.421875 10.890625-98.238281 34.273438-159.921875 3.800781-10.035156 5.730468-20.601563 5.730468-31.410156 0-57.582032-53.566406-101.078126-111.507812-87.488282-32.054688 7.519532-57.855469 33.042969-65.726562 65.023438-4.246094 17.214844-3.566407 34.886718 1.964843 51.105468 15.8125 46.347657 34.109375 107.730469 35.207031 171.550782.039063 2.066406.058594 4.132812.058594 6.203125v49.609375zm270.007812 90.003906v46c0 5.511719-4.484374 10-10 10h-320.007812c-5.511719 0-10-4.488281-10-10v-46c0-5.515625 4.488281-10 10-10h320.007812c5.515626 0 10 4.484375 10 10zm-40-40.003906v10h-260.007812v-10c0-16.539063 13.460938-30 30-30h200.007812c16.539063 0 30 13.460937 30 30zm-196.339843-283.820313c-4.292969-12.585937-4.800781-26.371093-1.476563-39.863281 6.09375-24.757812 26.0625-44.519531 50.875-50.335938 45.582032-10.6875 86.9375 23.519532 86.9375 68.015626 0 8.378906-1.488281 16.5625-4.429687 24.324218-24.050781 63.449219-35.363281 116.144532-35.558594 165.679688h-60.382813c-2.703124-62.96875-20.484374-122.445313-35.964843-167.820313zm36.335937 187.820313h60v46h-60zm0 0"/><path d="m203.742188 179.652344c5.308593 1.425781 10.8125-1.710938 12.25-7.066406 5.042968-18.785157 11.273437-38.125 19.050781-59.121094 1.917969-5.179688-.726563-10.933594-5.90625-12.851563-5.179688-1.917969-10.933594.726563-12.851563 5.90625-7.992187 21.578125-14.40625 41.492188-19.609375 60.878907-1.429687 5.335937 1.730469 10.820312 7.066407 12.253906zm0 0"/></svg>