<?xml version="1.0" encoding="iso-8859-1"?>
<!-- Generator: Adobe Illustrator 19.0.0, SVG Export Plug-In . SVG Version: 6.00 Build 0)  -->
<svg version="1.1" id="Capa_1" xmlns="http://www.w3.org/2000/svg" xmlns:xlink="http://www.w3.org/1999/xlink" x="0px" y="0px"
	 viewBox="0 0 512 512" style="enable-background:new 0 0 512 512;" xml:space="preserve">
<g>
	<g>
		<path d="M465.014,86.643c-1.86-1.859-4.439-2.93-7.069-2.93c-2.63,0-5.209,1.07-7.069,2.93c-1.86,1.86-2.93,4.44-2.93,7.069
			c0,2.63,1.07,5.209,2.93,7.069c1.86,1.86,4.438,2.93,7.069,2.93c2.63,0,5.209-1.07,7.069-2.93c1.86-1.86,2.93-4.439,2.93-7.069
			C467.943,91.083,466.873,88.503,465.014,86.643z"/>
	</g>
</g>
<g>
	<g>
		<path d="M497.51,86.643c-1.86-1.859-4.439-2.93-7.069-2.93s-5.209,1.07-7.069,2.93c-1.86,1.86-2.93,4.44-2.93,7.069
			c0,2.63,1.07,5.209,2.93,7.069c1.86,1.86,4.438,2.93,7.069,2.93c2.63,0,5.209-1.07,7.069-2.93c1.86-1.86,2.93-4.439,2.93-7.069
			C500.439,91.083,499.369,88.503,497.51,86.643z"/>
	</g>
</g>
<g>
	<g>
		<path d="M433.893,345.919c-5.187-1.892-10.928,0.779-12.819,5.967c-9.45,25.907-22.632,50.76-38.12,71.871
			c-3.267,4.452-2.305,10.71,2.147,13.976c1.783,1.309,3.854,1.938,5.906,1.938c3.076,0,6.111-1.415,8.07-4.086
			c16.592-22.615,30.694-49.188,40.784-76.846C441.754,353.551,439.082,347.812,433.893,345.919z"/>
	</g>
</g>
<g>
	<g>
		<path d="M369.67,455.435c-3.775-4.031-10.103-4.24-14.132-0.463l-0.37,0.346c-4.031,3.775-4.239,10.103-0.463,14.133
			c1.969,2.102,4.63,3.164,7.3,3.164c2.45,0,4.904-0.895,6.832-2.701l0.37-0.346C373.238,465.794,373.446,459.465,369.67,455.435z"
			/>
	</g>
</g>
<g>
	<g>
		<path d="M415.076,146.893c-20.013-20.008-46.317-32.977-76.071-37.508c-28.983-4.413-58.876,1.908-86.716,17.943
			c8.071-19.811,27.529-33.816,50.205-33.816c3.569,0,6.866-1.901,8.654-4.989s1.794-6.895,0.017-9.989l-18.166-31.628
			c-1.783-3.105-5.09-5.019-8.67-5.019c-29.032,0-55.022,13.275-72.219,34.074c-3.598-14.604-11.366-30.923-26.832-46.39
			C142.774-12.93,93.817,2.666,91.755,3.349c-3.264,1.083-5.701,3.749-6.536,7.005c-2.473,8.628-12.81,53.632,26.417,92.859
			c2.246,2.246,4.508,4.326,6.782,6.259c-37.902,5.901-69.081,24.856-90.187,54.847C1.938,201.681-6.308,254.121,5.011,311.974
			c10.501,53.662,36.263,106.253,70.679,144.286c37.449,41.384,80.405,60.778,120.949,54.6c11.21-1.708,22.061-5.003,32.332-9.814
			c10.27,4.811,21.122,8.106,32.333,9.814c4.989,0.76,10.002,1.14,15.035,1.14c19.619-0.001,39.521-5.764,59.354-17.214
			c4.782-2.761,6.421-8.876,3.66-13.658c-2.761-4.782-8.877-6.421-13.658-3.66c-20.889,12.061-41.54,16.643-61.379,13.623
			c-10.724-1.634-21.057-5.019-30.714-10.063c-2.901-1.514-6.357-1.514-9.257,0c-9.658,5.044-19.993,8.43-30.714,10.063
			c-33.692,5.127-70.312-12.006-103.111-48.25c-32.047-35.414-56.06-84.512-65.882-134.707
			c-10.264-52.456-3.18-99.443,19.948-132.307c17.992-25.566,44.743-41.705,77.365-46.673c33.73-5.131,69.375,7.254,100.368,34.889
			c3.793,3.381,9.517,3.381,13.309,0c30.992-27.635,66.634-40.024,100.368-34.889c25.509,3.885,47.965,14.909,64.942,31.882
			c3.906,3.905,10.236,3.904,14.14-0.002C418.981,157.129,418.98,150.798,415.076,146.893z M136.984,22.965v17.813l-20.802-20.802
			C122.187,19.983,129.309,20.719,136.984,22.965z M118.382,80.701c-13.105-16.835-16.279-33.948-16.286-46.53l46.529,46.53H118.382
			z M140.134,100.699h28.49l12.052,12.052C169.713,112.709,155.032,110.267,140.134,100.699z M156.981,60.775V32.194
			c4.731,3.07,9.486,6.847,14.155,11.517c19.502,19.501,23.719,40.488,23.738,54.957L156.981,60.775z M228.463,143.039
			c-5.748-4.647-11.634-8.843-17.624-12.589c0.217-3.144,0.616-6.237,1.217-9.261c0.287-1.061,0.65-2.531,1.019-4.357
			c7.849-29.82,33.947-52.317,65.589-54.731l7.585,13.206C254.597,82.404,230.538,109.791,228.463,143.039z"/>
	</g>
</g>
<g>
	<g>
		<path d="M96.389,168.025c-3.2-4.5-9.443-5.554-13.942-2.354c-8.316,5.913-15.553,13.202-21.507,21.664
			c-19.963,28.366-25.885,69.902-16.677,116.957c0.934,4.771,5.116,8.081,9.802,8.081c0.637,0,1.283-0.062,1.931-0.188
			c5.419-1.061,8.953-6.312,7.893-11.732c-8.151-41.657-3.391-77.742,13.405-101.609c4.645-6.602,10.279-12.281,16.742-16.877
			C98.536,178.768,99.59,172.526,96.389,168.025z"/>
	</g>
</g>
<g>
	<g>
		<path d="M136.301,157.287c-0.843-5.442-5.97-9.172-11.419-8.351c-0.025,0.004-0.143,0.021-0.169,0.026
			c-5.438,0.863-9.11,5.954-8.268,11.397c0.764,4.937,5.056,8.464,9.912,8.464c0.497,0,1.001-0.037,1.507-0.113
			c0.025-0.004,0.143-0.021,0.169-0.026C133.471,167.82,137.143,162.729,136.301,157.287z"/>
	</g>
</g>
<g>
	<g>
		<path d="M473.943,109.713c-20.95,0-37.995,17.045-37.995,37.995v87.166c0,10.949-8.907,19.856-19.856,19.856h-10.353
			c-9.979-19.481-26.731-31.046-45.147-31.046c-14.988,0-28.883,7.57-39.126,21.317c-9.587,12.866-14.867,29.814-14.867,47.723
			s5.279,34.857,14.867,47.723c10.243,13.747,24.139,21.317,39.126,21.317c18.423,0,35.171-11.563,45.149-31.046h10.351
			c52.849,0,95.846-42.997,95.846-95.846v-87.166C511.938,126.757,494.893,109.713,473.943,109.713z M360.59,243.681
			c7.809,0,15.303,3.995,21.307,11.049h-42.514C345.246,247.857,352.651,243.681,360.59,243.681z M360.59,341.769
			c-7.939,0-15.344-4.177-21.205-11.049H381.9C375.896,337.773,368.404,341.769,360.59,341.769z M491.941,234.874h-0.001
			c0,41.823-34.026,75.849-75.849,75.849H329.46c-0.13,0-0.256,0.015-0.385,0.02c-1.591-5.61-2.48-11.694-2.48-18.018
			c0-6.316,0.888-12.393,2.475-17.998h53.55v12.585c0,5.521,4.476,9.999,9.999,9.999s9.999-4.477,9.999-9.999v-12.585h13.473
			c1.021,0,2.031-0.051,3.033-0.127l6.88,11.403c1.878,3.113,5.182,4.835,8.57,4.835c1.759,0,3.541-0.465,5.156-1.439
			c4.728-2.854,6.248-8.999,3.396-13.727l-4.708-7.803c2.956-2.007,5.622-4.405,7.94-7.111l16.36,3.391
			c0.685,0.142,1.367,0.21,2.04,0.21c4.64,0,8.802-3.249,9.781-7.972c1.121-5.407-2.354-10.699-7.762-11.82l-11.514-2.387
			c0.441-2.371,0.683-4.81,0.683-7.307v-14.189H466.6c5.522,0,9.999-4.477,9.999-9.999s-4.476-9.999-9.999-9.999h-10.655v-20.193
			H466.6c5.522,0,9.999-4.477,9.999-9.999c0-5.521-4.476-9.999-9.999-9.999h-10.655v-12.787c0-9.924,8.074-17.998,17.998-17.998
			s17.998,8.074,17.998,17.998V234.874z"/>
	</g>
</g>
<g>
</g>
<g>
</g>
<g>
</g>
<g>
</g>
<g>
</g>
<g>
</g>
<g>
</g>
<g>
</g>
<g>
</g>
<g>
</g>
<g>
</g>
<g>
</g>
<g>
</g>
<g>
</g>
<g>
</g>
</svg>
